Widespread Panic
Fox Theatre
Boulder, CO
January 18, 1996

Source: SBD &gt; DA-P20 @ 48.0khz
Transfer: Tascam DA-45HR &gt; Audiophile 24/96 USB &gt; Cool Edit 2000 &gt; CDWave &gt; FLAC(level 6)

Resampled(48&gt;44.1) and Fades Added in Cool Edit
Tracked in CDWave

Converted, Edited, and Seeded by D.P. Swint

Disc 1
Set I
01. Glory 
02. The Take Out &gt; 
03. Porch Song
04. Dirty Business &gt; 
05. Henry Parsons Died
06. Tall Boy
07. I'm Not Alone &gt;
08. Radio Child
09. Wonderin' &gt; 
10. Walkin' 

Disc 2
Set II
01. Stag-O-Lee
02. Disco &gt; 
03. Makes Sense To Me
04. Gimme
05. Blight
06. Pickin' Up The Pieces
07. Nobody's Fault But Mine &gt; 
08. Mercy &gt; 
09. Blackout 
10. Pilgrims 

Encore:
11. Knocking 'Round The Zoo &gt;
12. Aunt Avis
13. Love Tractor 

[First 'Stag-O-Lee'; Mike, JB, and Dave sat all night; JB and Dave played acoustic all night; Sit & Ski Tour; 'Glory' JB solo; 'Stag-O-Lee' JoJo solo; Mike played acoustic on 'The Take Out' and 'Porch Song', 12 string on 'Wonderin' and 'Walkin' (For Your Love) and electric the rest of the night; 'My Sharona' tease by Dave before 'Knocking 'Round The Zoo'] 

Setlist compliments of Everyday Companion
www.everydaycompanion.com

********************************************************
FLAC Fingerprints

wsp1996-01-18d1t01.flac:e5bcd7eef553e9742af66f1b16ee8af1
wsp1996-01-18d1t02.flac:7c201b44a5c729f71e95b1646db743d8
wsp1996-01-18d1t03.flac:6ba1c39ec53284640745471540fbfcdd
wsp1996-01-18d1t04.flac:4227cf3ae78445e214993ad3d816fa38
wsp1996-01-18d1t05.flac:3a04bf15c0bf618c1145a3301bd0c003
wsp1996-01-18d1t06.flac:a9d8acf91a02971712e8bcc4db30caf3
wsp1996-01-18d1t07.flac:83a25731b38542ff0e0f623f24b3b7bd
wsp1996-01-18d1t08.flac:3b2d1597ee967e7bf280477b9e9855dd
wsp1996-01-18d1t09.flac:415ee0fa03123b647b460a91041eeb41
wsp1996-01-18d1t10.flac:29a1d4887ef09eef7269f049559c0e6f
wsp1996-01-18d2t01.flac:6190c55230d54711186d06e64a223494
wsp1996-01-18d2t02.flac:2e02465526416d2e57974b62fc4ce56f
wsp1996-01-18d2t03.flac:34929f41b8979e9c715b19de25a52f38
wsp1996-01-18d2t04.flac:a3e0ac79dd3694e8573352f2ca5b0a09
wsp1996-01-18d2t05.flac:6ecf70aac450e8b17da45d8b7d9dd9f1
wsp1996-01-18d2t06.flac:9e10c4a6da42653a50d9361370af7c30
wsp1996-01-18d2t07.flac:5525306be9badd557b9e2f58fae1b6b4
wsp1996-01-18d2t08.flac:af18885c21c8fc4a9b7a671d1aa571c0
wsp1996-01-18d2t09.flac:7b2dac4c2493f1e554b3cec39161c7c4
wsp1996-01-18d2t10.flac:bbadda3a133878aa54d0a2cf5bc01c3d
wsp1996-01-18d2t11.flac:d3f71ae6dcfbb990eabf3881a355d084
wsp1996-01-18d2t12.flac:68e30bdf962071882b48babd3ccc9a2c
wsp1996-01-18d2t13.flac:6cbf20e1b6a039fdb366056d92bf6ba0

********************************************************
SHNtool Output

    length     expanded size   cdr  WAVE problems filename
     4:59.08       52762460    ---   --   ---xx   wsp1996-01-18d1t01.flac
     2:22.72       25218188    ---   --   ---xx   wsp1996-01-18d1t02.flac
     4:06.11       43420316    ---   --   ---xx   wsp1996-01-18d1t03.flac
    10:05.02      106726748    ---   --   ---xx   wsp1996-01-18d1t04.flac
     5:30.29       58280252    ---   --   ---xx   wsp1996-01-18d1t05.flac
     4:52.25       51567644    ---   --   ---xx   wsp1996-01-18d1t06.flac
     6:22.03       67391900    ---   --   ---xx   wsp1996-01-18d1t07.flac
     6:23.71       67728236    ---   --   ---xx   wsp1996-01-18d1t08.flac
     4:34.40       48427724    ---   --   ---xx   wsp1996-01-18d1t09.flac
     4:48.69       50965532    ---   --   ---xx   wsp1996-01-18d1t10.flac
     4:56.52       52336748    ---   --   ---xx   wsp1996-01-18d2t01.flac
     4:39.42       49314428    ---   --   ---xx   wsp1996-01-18d2t02.flac
     5:02.73       53444540    ---   --   ---xx   wsp1996-01-18d2t03.flac
     5:18.43       56196380    ---   --   ---xx   wsp1996-01-18d2t04.flac
     7:06.17       75186428    ---   --   ---xx   wsp1996-01-18d2t05.flac
     4:17.01       45337196    ---   --   ---xx   wsp1996-01-18d2t06.flac
     8:27.28       89500700    ---   --   ---xx   wsp1996-01-18d2t07.flac
    10:01.42      106115228    ---   --   ---xx   wsp1996-01-18d2t08.flac
     6:13.64       65947772    ---   --   ---xx   wsp1996-01-18d2t09.flac
     8:01.30       84919004    ---   --   ---xx   wsp1996-01-18d2t10.flac
     6:43.43       71190380    ---   --   ---xx   wsp1996-01-18d2t11.flac
     3:20.04       35289452    ---   --   ---xx   wsp1996-01-18d2t12.flac
     5:48.49       61502492    ---   --   ---xx   wsp1996-01-18d2t13.flac
   134:02.68        1353.04 MB                    (totals for 23 